<svg xmlns="http://www.w3.org/2000/svg" xmlns:xlink="http://www.w3.org/1999/xlink" width="500" zoomAndPan="magnify" viewBox="0 0 375 374.999991" height="500" preserveAspectRatio="xMidYMid meet" version="1.0"><defs><clipPath id="89c5851987"><path d="M 6.234375 181 L 375 181 L 375 368.550781 L 6.234375 368.550781 Z M 6.234375 181 " clip-rule="nonzero"/></clipPath><clipPath id="7a032a4c55"><path d="M 100 259 L 186 259 L 186 368.550781 L 100 368.550781 Z M 100 259 " clip-rule="nonzero"/></clipPath><clipPath id="c076ad3a38"><path d="M 60 181 L 335 181 L 335 368.550781 L 60 368.550781 Z M 60 181 " clip-rule="nonzero"/></clipPath><clipPath id="2a22572f37"><path d="M 162 306 L 233 306 L 233 368.550781 L 162 368.550781 Z M 162 306 " clip-rule="nonzero"/></clipPath><clipPath id="48489b39e1"><path d="M 193 25.050781 L 335 25.050781 L 335 244 L 193 244 Z M 193 25.050781 " clip-rule="nonzero"/></clipPath></defs><g clip-path="url(#89c5851987)"><path fill="#ffcc59" d="M 373.339844 368.644531 L 14.125 368.644531 C 11.691406 368.644531 9.394531 367.503906 7.925781 365.585938 C 6.457031 363.648438 5.957031 361.132812 6.597656 358.792969 L 53.453125 186.996094 C 54.375 183.589844 57.449219 181.230469 60.980469 181.230469 L 232.777344 181.230469 C 237.089844 181.230469 240.585938 184.730469 240.585938 189.039062 C 240.585938 193.351562 237.089844 196.847656 232.777344 196.847656 L 66.945312 196.847656 L 24.355469 353.027344 L 363.109375 353.027344 L 320.519531 196.847656 L 295.25 196.847656 C 290.9375 196.847656 287.441406 193.351562 287.441406 189.039062 C 287.441406 184.730469 290.9375 181.230469 295.25 181.230469 L 326.484375 181.230469 C 330.015625 181.230469 333.089844 183.589844 334.011719 186.996094 L 380.867188 358.789062 C 381.507812 361.132812 381.007812 363.648438 379.539062 365.585938 C 378.070312 367.503906 375.773438 368.644531 373.339844 368.644531 Z M 373.339844 368.644531 " fill-opacity="1" fill-rule="nonzero"/></g><g clip-path="url(#7a032a4c55)"><path fill="#ffcc59" d="M 107.835938 368.644531 C 106.195312 368.644531 104.554688 368.128906 103.148438 367.085938 C 99.699219 364.492188 98.996094 359.601562 101.585938 356.152344 L 171.867188 262.445312 C 174.460938 258.976562 179.347656 258.289062 182.800781 260.882812 C 186.25 263.476562 186.953125 268.363281 184.363281 271.816406 L 114.082031 365.523438 C 112.550781 367.566406 110.207031 368.644531 107.835938 368.644531 Z M 107.835938 368.644531 " fill-opacity="1" fill-rule="nonzero"/></g><g clip-path="url(#c076ad3a38)"><path fill="#ffcc59" d="M 326.484375 368.644531 C 325 368.644531 323.5 368.222656 322.160156 367.335938 L 64.464844 195.539062 C 60.871094 193.148438 59.902344 188.304688 62.292969 184.714844 C 64.683594 181.121094 69.507812 180.152344 73.117188 182.542969 L 330.8125 354.339844 C 334.402344 356.730469 335.371094 361.570312 332.980469 365.164062 C 331.484375 367.425781 329 368.644531 326.484375 368.644531 Z M 326.484375 368.644531 " fill-opacity="1" fill-rule="nonzero"/></g><path fill="#ffcc59" d="M 139.070312 321.792969 C 137.585938 321.792969 136.085938 321.371094 134.742188 320.480469 L 41.035156 258.007812 C 37.445312 255.621094 36.476562 250.777344 38.867188 247.183594 C 41.238281 243.59375 46.082031 242.625 49.6875 245.015625 L 143.394531 307.484375 C 146.988281 309.875 147.957031 314.71875 145.566406 318.308594 C 144.066406 320.574219 141.585938 321.792969 139.070312 321.792969 Z M 139.070312 321.792969 " fill-opacity="1" fill-rule="nonzero"/><path fill="#ffcc59" d="M 295.25 298.367188 C 293.671875 298.367188 292.09375 297.898438 290.71875 296.914062 C 287.207031 294.414062 286.394531 289.527344 288.90625 286.027344 L 327.953125 231.363281 C 330.46875 227.867188 335.339844 227.054688 338.839844 229.554688 C 342.351562 232.050781 343.164062 236.941406 340.648438 240.4375 L 301.605469 295.101562 C 300.074219 297.226562 297.683594 298.367188 295.25 298.367188 Z M 295.25 298.367188 " fill-opacity="1" fill-rule="nonzero"/><path fill="#ffcc59" d="M 365.53125 345.21875 C 364.0625 345.21875 362.578125 344.8125 361.265625 343.9375 L 134.804688 195.570312 C 131.199219 193.210938 130.199219 188.367188 132.542969 184.761719 C 134.914062 181.167969 139.757812 180.152344 143.347656 182.496094 L 369.808594 330.867188 C 373.417969 333.222656 374.417969 338.066406 372.074219 341.671875 C 370.558594 343.96875 368.074219 345.21875 365.53125 345.21875 Z M 365.53125 345.21875 " fill-opacity="1" fill-rule="nonzero"/><g clip-path="url(#2a22572f37)"><path fill="#ffcc59" d="M 209.351562 368.644531 C 207.992188 368.644531 206.601562 368.285156 205.335938 367.535156 L 166.292969 344.109375 C 164.464844 343.015625 163.152344 341.207031 162.699219 339.128906 C 162.230469 337.035156 162.636719 334.863281 163.824219 333.082031 L 179.441406 309.65625 C 181.738281 306.191406 186.34375 305.113281 189.953125 307.300781 L 228.996094 330.726562 C 230.824219 331.820312 232.136719 333.628906 232.589844 335.707031 C 233.058594 337.800781 232.652344 339.972656 231.464844 341.75 L 215.847656 365.179688 C 214.347656 367.410156 211.878906 368.644531 209.351562 368.644531 Z M 181.347656 334.925781 L 206.992188 350.308594 L 213.925781 339.894531 L 188.28125 324.507812 Z M 181.347656 334.925781 " fill-opacity="1" fill-rule="nonzero"/></g><path fill="#ffcc59" d="M 264.011719 134.378906 C 242.492188 134.378906 224.96875 116.855469 224.96875 95.332031 C 224.96875 73.8125 242.492188 56.289062 264.011719 56.289062 C 285.535156 56.289062 303.058594 73.8125 303.058594 95.332031 C 303.058594 116.855469 285.535156 134.378906 264.011719 134.378906 Z M 264.011719 71.90625 C 251.097656 71.90625 240.585938 82.417969 240.585938 95.332031 C 240.585938 108.25 251.097656 118.757812 264.011719 118.757812 C 276.929688 118.757812 287.441406 108.25 287.441406 95.332031 C 287.441406 82.417969 276.929688 71.90625 264.011719 71.90625 Z M 264.011719 71.90625 " fill-opacity="1" fill-rule="nonzero"/><g clip-path="url(#48489b39e1)"><path fill="#ffcc59" d="M 264.011719 243.703125 C 261.25 243.703125 258.6875 242.234375 257.28125 239.859375 C 250.785156 228.820312 193.734375 130.925781 193.734375 95.332031 C 193.734375 56.585938 225.265625 25.050781 264.011719 25.050781 C 302.761719 25.050781 334.292969 56.585938 334.292969 95.332031 C 334.292969 130.925781 277.242188 228.820312 270.746094 239.859375 C 269.339844 242.234375 266.777344 243.703125 264.011719 243.703125 Z M 264.011719 40.671875 C 233.871094 40.671875 209.351562 65.191406 209.351562 95.332031 C 209.351562 118.882812 244.210938 185.324219 264.011719 220.261719 C 283.816406 185.324219 318.675781 118.882812 318.675781 95.332031 C 318.675781 65.191406 294.15625 40.671875 264.011719 40.671875 Z M 264.011719 40.671875 " fill-opacity="1" fill-rule="nonzero"/></g></svg>